<?xml version="1.0" encoding="UTF-8"?>
<svg width="69px" height="70px" viewBox="0 0 69 70" version="1.1" xmlns="http://www.w3.org/2000/svg" xmlns:xlink="http://www.w3.org/1999/xlink">
    <!-- Generator: Sketch 51.1 (57501) - http://www.bohemiancoding.com/sketch -->
    <title>Group</title>
    <desc>Created with Sketch.</desc>
    <defs></defs>
    <g id="Page-1" stroke="none" stroke-width="1" fill="none" fill-rule="evenodd">
        <g id="Desktop-HD" transform="translate(-979.000000, -581.000000)" fill-rule="nonzero">
            <g id="Group-5" transform="translate(53.000000, 556.000000)">
                <g id="Group-2" transform="translate(926.000000, 2.000000)">
                    <g id="Group" transform="translate(0.000000, 23.000000)">
                        <path d="M63.9916667,0.408333333 L4.84166667,0.408333333 C2.15833333,0.408333333 0,2.56666667 0,5.25 L0,64.75 C0,67.4333333 2.15833333,69.5916667 4.84166667,69.5916667 L63.9916667,69.5916667 C66.675,69.5916667 68.8333333,67.4333333 68.8333333,64.75 L68.8333333,5.25 C68.8333333,2.56666667 66.675,0.408333333 63.9916667,0.408333333 Z M4.84166667,2.74166667 L63.9916667,2.74166667 C65.3916667,2.74166667 66.5,3.85 66.5,5.25 L66.5,35.175 L2.33333333,35.175 L2.33333333,5.25 C2.33333333,3.85 3.44166667,2.74166667 4.84166667,2.74166667 Z M13.3,37.5083333 L8.51666667,39.0833333 L8.51666667,37.45 L13.3,37.45 L13.3,37.5083333 Z M8.51666667,41.5916667 L16.6833333,38.85 L16.6833333,40.7166667 L8.51666667,43.5166667 L8.51666667,41.5916667 Z M16.6833333,43.1083333 L16.6833333,44.7416667 L8.925,47.3083333 C8.69166667,46.8416667 8.575,46.375 8.51666667,45.85 L16.6833333,43.1083333 Z M16.275,47.3666667 C15.6333333,48.7666667 14.2333333,49.7 12.6,49.7 C11.9,49.7 11.2583333,49.525 10.7333333,49.2333333 L16.275,47.3666667 Z M13.7666667,51.9166667 C16.7416667,51.3916667 19.0166667,48.7666667 19.0166667,45.6166667 L19.0166667,37.45 L22.4583333,37.45 L22.4583333,67.2583333 L13.7666667,67.2583333 L13.7666667,51.9166667 Z M24.7333333,37.5083333 L28.4083333,37.5083333 L28.4083333,45.675 C28.4083333,48.825 30.6833333,51.45 33.6583333,51.975 L33.6583333,67.3166667 L24.7333333,67.3166667 L24.7333333,37.5083333 Z M34.825,49.7 C34.125,49.7 33.4833333,49.525 32.9583333,49.2333333 L38.5583333,47.3666667 C37.8,48.7666667 36.4583333,49.7 34.825,49.7 Z M38.9083333,40.6583333 L30.7416667,43.4583333 L30.7416667,41.5916667 L38.9083333,38.85 L38.9083333,40.6583333 Z M38.9083333,44.8 L31.15,47.3666667 C30.9166667,46.9 30.8,46.4333333 30.7416667,45.9083333 L38.9083333,43.1083333 L38.9083333,44.8 Z M30.7416667,39.0833333 L30.7416667,37.45 L35.525,37.45 L30.7416667,39.0833333 Z M35.9916667,51.9166667 C38.9666667,51.3916667 41.2416667,48.7666667 41.2416667,45.6166667 L41.2416667,37.45 L44.6833333,37.45 L44.6833333,67.2583333 L35.9916667,67.2583333 L35.9916667,51.9166667 Z M46.9583333,37.5083333 L50.05,37.5083333 L50.05,45.675 C50.05,48.825 52.325,51.45 55.3,51.975 L55.3,67.3166667 L46.9583333,67.3166667 L46.9583333,37.5083333 Z M60.55,40.6583333 L52.3833333,43.4583333 L52.3833333,41.5916667 L60.55,38.85 L60.55,40.6583333 Z M52.3833333,39.0833333 L52.3833333,37.45 L57.1666667,37.45 L52.3833333,39.0833333 Z M56.4666667,49.7 C55.7666667,49.7 55.125,49.525 54.6,49.2333333 L60.2,47.3666667 C59.5,48.7666667 58.1,49.7 56.4666667,49.7 Z M60.55,44.8 L52.7916667,47.3666667 C52.5583333,46.9 52.4416667,46.4333333 52.3833333,45.9083333 L60.55,43.1083333 L60.55,44.8 Z M2.33333333,64.75 L2.33333333,37.5083333 L6.18333333,37.5083333 L6.18333333,45.675 C6.18333333,48.825 8.45833333,51.45 11.4333333,51.975 L11.4333333,67.3166667 L4.84166667,67.3166667 C3.44166667,67.2583333 2.33333333,66.15 2.33333333,64.75 Z M63.9916667,67.2583333 L57.6333333,67.2583333 L57.6333333,51.9166667 C60.6083333,51.3916667 62.8833333,48.7666667 62.8833333,45.6166667 L62.8833333,37.45 L66.5,37.45 L66.5,64.75 C66.5,66.15 65.3916667,67.2583333 63.9916667,67.2583333 Z" id="Shape" fill="#FFFFFF"></path>
                        <path d="M32.2,19.8916667 L59.325,19.8916667 C61.775,19.8916667 63.7583333,17.9083333 63.7583333,15.4583333 L63.7583333,9.04166667 C63.7583333,6.59166667 61.775,4.60833333 59.325,4.60833333 L32.2,4.60833333 C29.75,4.60833333 27.7666667,6.59166667 27.7666667,9.04166667 L27.7666667,15.4583333 C27.7083333,17.9083333 29.6916667,19.8916667 32.2,19.8916667 Z M30.0416667,9.04166667 C30.0416667,7.875 30.975,6.94166667 32.1416667,6.94166667 L59.2666667,6.94166667 C60.4333333,6.94166667 61.3666667,7.875 61.3666667,9.04166667 L61.3666667,15.4583333 C61.3666667,16.625 60.4333333,17.5583333 59.2666667,17.5583333 L32.2,17.5583333 C31.0333333,17.5583333 30.1,16.625 30.1,15.4583333 L30.1,9.04166667 L30.0416667,9.04166667 Z" id="Shape" fill="#FFAD1C"></path>
                        <path d="M6.125,18.55 L7.23333333,18.55 L7.23333333,28.4666667 L9.56666667,28.4666667 L9.56666667,18.55 L10.675,18.55 C12.425,18.55 13.8833333,17.0916667 13.8833333,15.3416667 C13.8833333,13.5916667 12.425,12.1333333 10.675,12.1333333 L9.56666667,12.1333333 L9.56666667,8.98333333 L7.23333333,8.98333333 L7.23333333,12.1333333 L6.125,12.1333333 C4.375,12.1333333 2.91666667,13.5916667 2.91666667,15.3416667 C2.91666667,17.15 4.31666667,18.55 6.125,18.55 Z M6.125,14.4666667 L10.7333333,14.4666667 C11.2,14.4666667 11.6083333,14.875 11.6083333,15.3416667 C11.6083333,15.8083333 11.2,16.2166667 10.7333333,16.2166667 L6.125,16.2166667 C5.65833333,16.2166667 5.25,15.8083333 5.25,15.3416667 C5.25,14.875 5.6,14.4666667 6.125,14.4666667 Z" id="Shape" fill="#FFAD1C"></path>
                        <path d="M16.975,23.975 L18.0833333,23.975 L18.0833333,28.4666667 L20.4166667,28.4666667 L20.4166667,23.975 L21.525,23.975 C23.275,23.975 24.7333333,22.5166667 24.7333333,20.7666667 C24.7333333,19.0166667 23.275,17.5583333 21.525,17.5583333 L20.4166667,17.5583333 L20.4166667,8.98333333 L18.0833333,8.98333333 L18.0833333,17.5583333 L16.975,17.5583333 C15.225,17.5583333 13.7666667,19.0166667 13.7666667,20.7666667 C13.7083333,22.575 15.1666667,23.975 16.975,23.975 Z M16.975,19.8916667 L21.5833333,19.8916667 C22.05,19.8916667 22.4583333,20.3 22.4583333,20.7666667 C22.4583333,21.2333333 22.05,21.6416667 21.5833333,21.6416667 L16.975,21.6416667 C16.5083333,21.6416667 16.1,21.2333333 16.1,20.7666667 C16.0416667,20.3 16.45,19.8916667 16.975,19.8916667 Z" id="Shape" fill="#FFAD1C"></path>
                        <path d="M37.6833333,20.65 C34.0083333,20.65 30.975,23.6833333 30.975,27.3583333 C30.975,31.0333333 34.0083333,34.0666667 37.6833333,34.0666667 C41.3583333,34.0666667 44.3916667,31.0333333 44.3916667,27.3583333 C44.3916667,23.6833333 41.3583333,20.65 37.6833333,20.65 Z M37.6833333,31.7333333 C35.2916667,31.7333333 33.3083333,29.75 33.3083333,27.3583333 C33.3083333,24.9666667 35.2916667,22.9833333 37.6833333,22.9833333 C40.075,22.9833333 42.0583333,24.9666667 42.0583333,27.3583333 C42.0583333,29.75 40.075,31.7333333 37.6833333,31.7333333 Z" id="Shape" fill="#FFAD1C"></path>
                        <polygon id="Shape" fill="#FFAD1C" points="38.85 24.5583333 36.5166667 24.5583333 36.5166667 25.9583333 35.1166667 25.9583333 35.1166667 28.2916667 36.5166667 28.2916667 36.5166667 29.6916667 38.85 29.6916667 38.85 28.2916667 40.25 28.2916667 40.25 25.9583333 38.85 25.9583333"></polygon>
                        <path d="M53.9583333,20.8833333 C50.4,20.8833333 47.4833333,23.8 47.4833333,27.3583333 C47.4833333,30.9166667 50.4,33.8333333 53.9583333,33.8333333 C57.5166667,33.8333333 60.4333333,30.9166667 60.4333333,27.3583333 C60.4333333,23.8 57.5166667,20.8833333 53.9583333,20.8833333 Z M53.9583333,31.4416667 C51.6833333,31.4416667 49.8166667,29.575 49.8166667,27.3 C49.8166667,25.025 51.6833333,23.1583333 53.9583333,23.1583333 C56.2333333,23.1583333 58.1,25.025 58.1,27.3 C58.1,29.575 56.175,31.4416667 53.9583333,31.4416667 Z" id="Shape" fill="#FFAD1C"></path>
                        <rect id="Rectangle-path" fill="#FFAD1C" x="51.3916667" y="25.9583333" width="5.13333333" height="2.33333333"></rect>
                    </g>
                </g>
            </g>
        </g>
    </g>
</svg>