<?xml version="1.0" encoding="UTF-8"?>
<svg width="70px" height="70px" viewBox="0 0 70 70" version="1.1" xmlns="http://www.w3.org/2000/svg" xmlns:xlink="http://www.w3.org/1999/xlink">
    <!-- Generator: Sketch 51.1 (57501) - http://www.bohemiancoding.com/sketch -->
    <title>Group</title>
    <desc>Created with Sketch.</desc>
    <defs></defs>
    <g id="Page-1" stroke="none" stroke-width="1" fill="none" fill-rule="evenodd">
        <g id="Desktop-HD" transform="translate(-53.000000, -581.000000)" fill-rule="nonzero">
            <g id="Group-5" transform="translate(53.000000, 556.000000)">
                <g id="Group-4">
                    <g id="Group" transform="translate(0.000000, 25.000000)">
                        <path d="M63.137931,48 C60.404353,48.0048148 58.0370039,49.8749523 57.4317931,52.5076842 C55.1819881,51.1289065 52.3352532,51.1289065 50.0854483,52.5076842 C49.4842947,49.872538 47.114382,48.0006422 44.3793103,48.0006422 C41.6442387,48.0006422 39.274326,49.872538 38.6731724,52.5076842 C36.4233675,51.1289065 33.5766325,51.1289065 31.3268276,52.5076842 C30.725674,49.872538 28.3557613,48.0006422 25.6206897,48.0006422 C22.885618,48.0006422 20.5157053,49.872538 19.9145517,52.5076842 C17.6647468,51.1289065 14.8180119,51.1289065 12.5682069,52.5076842 C11.8886472,49.6546718 9.15746054,47.7532646 6.20832242,48.0800373 C3.2591843,48.40681 1.02252403,50.8586685 1,53.7894737 C1,54.4289613 1.52490753,54.9473684 2.17241379,54.9473684 C2.81992005,54.9473684 3.34482759,54.4289613 3.34482759,53.7894737 C3.34482759,51.8710109 4.91955019,50.3157895 6.86206897,50.3157895 C8.80458774,50.3157895 10.3793103,51.8710109 10.3793103,53.7894737 C10.3840843,53.9894045 10.442768,54.1844596 10.5493103,54.3545263 C8.53965782,57.078225 8.81209518,60.8363087 11.1941379,63.2494737 C10.7550472,63.4092857 10.3607961,63.6700556 10.044,64.0102105 C9.50047635,64.6077068 9.20200858,65.383856 9.20689655,66.1870526 L9.20689655,68.8421053 C9.20689655,69.4815929 9.73180409,70 10.3793103,70 C11.0268166,70 11.5517241,69.4815929 11.5517241,68.8421053 L11.5517241,66.1870526 C11.5483865,65.9604055 11.6293099,65.7404162 11.7791724,65.5687368 C11.8840382,65.4462675 12.036576,65.373468 12.1988966,65.3684211 L20.2885517,65.3684211 C20.4508723,65.373468 20.60341,65.4462675 20.7082759,65.5687368 C20.8581384,65.7404162 20.9390618,65.9604055 20.9357241,66.1870526 L20.9357241,68.8421053 C20.9357241,69.4815929 21.4606317,70 22.1081379,70 C22.7556442,70 23.2805517,69.4815929 23.2805517,68.8421053 L23.2805517,66.1870526 C23.2854397,65.383856 22.9869719,64.6077068 22.4434483,64.0102105 C22.1266522,63.6700556 21.732401,63.4092857 21.2933103,63.2494737 C23.6753531,60.8363087 23.9477905,57.078225 21.9381379,54.3545263 C22.0430329,54.1839991 22.1000887,53.9889747 22.1034483,53.7894737 C22.1034483,51.8710109 23.6781709,50.3157895 25.6206897,50.3157895 C27.5632084,50.3157895 29.137931,51.8710109 29.137931,53.7894737 C29.142705,53.9894045 29.2013887,54.1844596 29.307931,54.3545263 C27.2982785,57.078225 27.5707159,60.8363087 29.9527586,63.2494737 C29.5136679,63.4092857 29.1194168,63.6700556 28.8026207,64.0102105 C28.259097,64.6077068 27.9606293,65.383856 27.9655172,66.1870526 L27.9655172,68.8421053 C27.9655172,69.4815929 28.4904248,70 29.137931,70 C29.7854373,70 30.3103448,69.4815929 30.3103448,68.8421053 L30.3103448,66.1870526 C30.3070072,65.9604055 30.3879306,65.7404162 30.5377931,65.5687368 C30.6426589,65.4462675 30.7951967,65.373468 30.9575172,65.3684211 L39.0471724,65.3684211 C39.209493,65.373468 39.3620307,65.4462675 39.4668966,65.5687368 C39.6167591,65.7404162 39.6976824,65.9604055 39.6943448,66.1870526 L39.6943448,68.8421053 C39.6943448,69.4815929 40.2192524,70 40.8667586,70 C41.5142649,70 42.0391724,69.4815929 42.0391724,68.8421053 L42.0391724,66.1870526 C42.0440604,65.383856 41.7455926,64.6077068 41.202069,64.0102105 C40.8852729,63.6700556 40.4910217,63.4092857 40.051931,63.2494737 C42.4339738,60.8363087 42.7064111,57.078225 40.6967586,54.3545263 C40.8016536,54.1839991 40.8587094,53.9889747 40.862069,53.7894737 C40.862069,51.8710109 42.4367916,50.3157895 44.3793103,50.3157895 C46.3218291,50.3157895 47.8965517,51.8710109 47.8965517,53.7894737 C47.9013257,53.9894045 47.9600094,54.1844596 48.0665517,54.3545263 C46.0568992,57.078225 46.3293366,60.8363087 48.7113793,63.2494737 C48.2722886,63.4092857 47.8780375,63.6700556 47.5612414,64.0102105 C47.0177177,64.6077068 46.71925,65.383856 46.7241379,66.1870526 L46.7241379,68.8421053 C46.7241379,69.4815929 47.2490455,70 47.8965517,70 C48.544058,70 49.0689655,69.4815929 49.0689655,68.8421053 L49.0689655,66.1870526 C49.0656279,65.9604055 49.1465512,65.7404162 49.2964138,65.5687368 C49.4012796,65.4462675 49.5538174,65.373468 49.7161379,65.3684211 L57.8057931,65.3684211 C57.9681137,65.373468 58.1206514,65.4462675 58.2255172,65.5687368 C58.3753798,65.7404162 58.4563031,65.9604055 58.4529655,66.1870526 L58.4529655,68.8421053 C58.4529655,69.4815929 58.9778731,70 59.6253793,70 C60.2728856,70 60.7977931,69.4815929 60.7977931,68.8421053 L60.7977931,66.1870526 C60.8026811,65.383856 60.5042133,64.6077068 59.9606897,64.0102105 C59.6438936,63.6700556 59.2496424,63.4092857 58.8105517,63.2494737 C61.1925945,60.8363087 61.4650318,57.078225 59.4553793,54.3545263 C59.5602743,54.1839991 59.6173301,53.9889747 59.6206897,53.7894737 C59.6206897,51.8710109 61.1954123,50.3157895 63.137931,50.3157895 C65.0804498,50.3157895 66.6551724,51.8710109 66.6551724,53.7894737 C66.6551724,54.4289613 67.1800799,54.9473684 67.8275862,54.9473684 C68.4750925,54.9473684 69,54.4289613 69,53.7894737 C68.9961239,50.5936227 66.3738554,48.0038281 63.137931,48 Z M16.2413793,53.7894737 C18.8314043,53.7894737 20.9310345,55.8631022 20.9310345,58.4210526 C20.9310345,60.9790031 18.8314043,63.0526316 16.2413793,63.0526316 C13.6513543,63.0526316 11.5517241,60.9790031 11.5517241,58.4210526 C11.5517241,55.8631022 13.6513543,53.7894737 16.2413793,53.7894737 Z M35,53.7894737 C37.590025,53.7894737 39.6896552,55.8631022 39.6896552,58.4210526 C39.6896552,60.9790031 37.590025,63.0526316 35,63.0526316 C32.409975,63.0526316 30.3103448,60.9790031 30.3103448,58.4210526 C30.3103448,55.8631022 32.409975,53.7894737 35,53.7894737 Z M53.7586207,53.7894737 C56.3486457,53.7894737 58.4482759,55.8631022 58.4482759,58.4210526 C58.4482759,60.9790031 56.3486457,63.0526316 53.7586207,63.0526316 C51.1685957,63.0526316 49.0689655,60.9790031 49.0689655,58.4210526 C49.0689655,55.8631022 51.1685957,53.7894737 53.7586207,53.7894737 Z" id="Shape" fill="#FFFFFF"></path>
                        <path d="M12.4,45.8333333 C12.4,43.9003367 14.0117749,42.3333333 16,42.3333333 C17.9882251,42.3333333 19.6,43.9003367 19.6,45.8333333 C19.6,46.4776655 20.1372583,47 20.8,47 C21.4627417,47 22,46.4776655 22,45.8333333 C22,42.6116723 19.3137085,40 16,40 C12.6862915,40 10,42.6116723 10,45.8333333 C10,46.4776655 10.5372583,47 11.2,47 C11.8627417,47 12.4,46.4776655 12.4,45.8333333 Z" id="Shape" fill="#FFFFFF"></path>
                        <path d="M31.4,45.8333333 C31.4,43.9003367 33.0117749,42.3333333 35,42.3333333 C36.9882251,42.3333333 38.6,43.9003367 38.6,45.8333333 C38.6,46.4776655 39.1372583,47 39.8,47 C40.4627417,47 41,46.4776655 41,45.8333333 C41,42.6116723 38.3137085,40 35,40 C31.6862915,40 29,42.6116723 29,45.8333333 C29,46.4776655 29.5372583,47 30.2,47 C30.8627417,47 31.4,46.4776655 31.4,45.8333333 Z" id="Shape" fill="#FFFFFF"></path>
                        <path d="M50.4,45.8333333 C50.4,43.9003367 52.0117749,42.3333333 54,42.3333333 C55.9882251,42.3333333 57.6,43.9003367 57.6,45.8333333 C57.6,46.4776655 58.1372583,47 58.8,47 C59.4627417,47 60,46.4776655 60,45.8333333 C60,42.6116723 57.3137085,40 54,40 C50.6862915,40 48,42.6116723 48,45.8333333 C48,46.4776655 48.5372583,47 49.2,47 C49.8627417,47 50.4,46.4776655 50.4,45.8333333 Z" id="Shape" fill="#FFFFFF"></path>
                        <path d="M70,1.14893562 C70,0.514396001 69.4776655,0 68.8333333,0 L1.16666667,0 C0.522334459,0 0,0.514396001 0,1.14893562 C0,1.78347525 0.522334459,2.29787125 1.16666667,2.29787125 L3.017,2.29787125 L6.517,5.74467812 L1.16666667,5.74467812 C0.522334459,5.74467812 0,6.25907412 0,6.89361375 C0,7.52815337 0.522334459,8.04254937 1.16666667,8.04254937 L2.33333333,8.04254937 L2.33333333,12.0638241 C0.622291948,13.8656055 0.673952463,16.6800313 2.45,18.4197359 L4.725,20.6601604 C5.18058316,21.1086841 5.91908351,21.1086841 6.37466667,20.6601604 L11.3236667,15.7852265 C11.7791123,15.3365674 11.7791123,14.6092908 11.3236667,14.1606316 L9.04866667,11.921356 C7.90931286,10.7812097 6.24103113,10.3223624 4.66666667,10.7161226 L4.66666667,8.04254937 L33.8333333,8.04254937 L33.8333333,10.8195268 C33.0287227,11.0021786 32.290807,11.3997174 31.7006667,11.9684624 C30.8288777,12.8309857 30.3375724,13.9972343 30.3333333,15.2142055 L30.3333333,18.38297 C30.3333333,19.0175096 30.8556678,19.5319056 31.5,19.5319056 L38.5,19.5319056 C39.1443322,19.5319056 39.6666667,19.0175096 39.6666667,18.38297 L39.6666667,15.2142055 C39.6633484,13.9960392 39.1719736,12.8283867 38.2993333,11.9650156 C37.709193,11.3962706 36.9712773,10.9987318 36.1666667,10.81608 L36.1666667,8.04254937 L65.3333333,8.04254937 L65.3333333,10.7161226 C63.7579801,10.3227937 62.0890367,10.7830133 60.9501667,11.9248029 L58.6751667,14.1640784 C58.2197211,14.6127376 58.2197211,15.3400142 58.6751667,15.7886734 L63.6241667,20.6636072 C64.0797498,21.1121309 64.8182502,21.1121309 65.2738333,20.6636072 L67.5488333,18.4231827 C69.3274674,16.6833814 69.3796641,13.8663707 67.6666667,12.0638241 L67.6666667,8.04254937 L68.8333333,8.04254937 C69.4776655,8.04254937 70,7.52815337 70,6.89361375 C70,6.25907412 69.4776655,5.74467812 68.8333333,5.74467812 L68.0691667,5.74467812 C68.0260885,5.65892456 67.9719769,5.57899073 67.9081667,5.50684845 L64.6496667,2.29787125 L68.8333333,2.29787125 C69.4776655,2.29787125 70,1.78347525 70,1.14893562 Z M7.40016667,13.5493978 L8.85033333,14.9763759 L5.551,18.2267148 L4.10083333,16.7985878 C3.49426797,16.221651 3.25100394,15.3672946 3.46453997,14.5638912 C3.678076,13.7604877 4.3151809,13.1330656 5.13098291,12.9227749 C5.94678492,12.7124842 6.81432624,12.9520511 7.40016667,13.5493978 Z M37.3333333,15.2142055 L37.3333333,17.2340344 L32.6666667,17.2340344 L32.6666667,15.2142055 C32.6666667,13.9451263 33.7113356,12.9163343 35,12.9163343 C36.2886644,12.9163343 37.3333333,13.9451263 37.3333333,15.2142055 Z M65.8991667,16.7985878 L64.449,18.2267148 L61.1496667,14.9763759 L62.5998333,13.5493978 C63.1856738,12.9520511 64.0532151,12.7124842 64.8690171,12.9227749 C65.6848191,13.1330656 66.321924,13.7604877 66.53546,14.5638912 C66.7489961,15.3672946 66.505732,16.221651 65.8991667,16.7985878 Z M26.8333333,2.7735306 L29.8503333,5.74467812 L23.8163333,5.74467812 L26.8333333,2.7735306 Z M21,5.26901878 L17.983,2.29787125 L24.017,2.29787125 L21,5.26901878 Z M29.6496667,2.29787125 L35.6836667,2.29787125 L32.6666667,5.26901878 L29.6496667,2.29787125 Z M38.5,2.7735306 L41.517,5.74467812 L35.483,5.74467812 L38.5,2.7735306 Z M44.3333333,5.26901878 L41.3163333,2.29787125 L47.3503333,2.29787125 L44.3333333,5.26901878 Z M50.1666667,2.7735306 L53.1836667,5.74467812 L47.1496667,5.74467812 L50.1666667,2.7735306 Z M12.3503333,2.29787125 L9.33333333,5.26901878 L6.31633333,2.29787125 L12.3503333,2.29787125 Z M15.1666667,2.7735306 L18.1836667,5.74467812 L12.1496667,5.74467812 L15.1666667,2.7735306 Z M58.8163333,5.74467812 L61.8333333,2.7735306 L64.8503333,5.74467812 L58.8163333,5.74467812 Z M56,5.26901878 L52.983,2.29787125 L59.017,2.29787125 L56,5.26901878 Z" id="Shape" fill="#FFAD1C"></path>
                        <path d="M68.8333333,35 L1.16666667,35 C0.522334459,35 0,35.4477153 0,36 C0,36.5522847 0.522334459,37 1.16666667,37 L68.8333333,37 C69.4776655,37 70,36.5522847 70,36 C70,35.4477153 69.4776655,35 68.8333333,35 Z" id="Shape" fill="#FFAD1C"></path>
                    </g>
                </g>
            </g>
        </g>
    </g>
</svg>