<?xml version="1.0" encoding="UTF-8"?>
<svg width="70px" height="60px" viewBox="0 0 70 60" version="1.1" xmlns="http://www.w3.org/2000/svg" xmlns:xlink="http://www.w3.org/1999/xlink">
    <!-- Generator: Sketch 51.1 (57501) - http://www.bohemiancoding.com/sketch -->
    <title>Group</title>
    <desc>Created with Sketch.</desc>
    <defs></defs>
    <g id="Page-1" stroke="none" stroke-width="1" fill="none" fill-rule="evenodd">
        <g id="Desktop-HD" transform="translate(-516.000000, -581.000000)" fill-rule="nonzero">
            <g id="Group-5" transform="translate(53.000000, 556.000000)">
                <g id="Group-3" transform="translate(463.000000, 2.000000)">
                    <g id="Group" transform="translate(0.000000, 23.000000)">
                        <path d="M61.92,49.7476923 C66.1684615,49.7476923 69.6261538,46.2923077 69.6261538,42.0430769 L69.6261538,2.10692308 C69.6261538,1.21153846 68.9007692,0.488461538 68.0069231,0.488461538 L2.17076923,0.488461538 C1.27538462,0.488461538 0.552307692,1.21076923 0.552307692,2.10692308 L0.552307692,48.13 C0.552307692,49.0238462 1.27461538,49.7484615 2.17076923,49.7484615 L26.7092308,49.7484615 L26.7092308,56.4323077 L17.5469231,56.4323077 C16.6530769,56.4323077 15.9276923,57.1576923 15.9276923,58.0515385 C15.9276923,58.9453846 16.6530769,59.67 17.5469231,59.67 L28.3284615,59.67 L41.8530769,59.67 L52.6376923,59.67 C53.5315385,59.67 54.2561538,58.9461538 54.2561538,58.0515385 C54.2561538,57.1569231 53.5323077,56.4323077 52.6376923,56.4323077 L43.4707692,56.4323077 L43.4707692,49.7484615 L61.92,49.7484615 L61.92,49.7476923 Z M3.79076923,40.3923077 L60.5707692,40.3923077 C61.4646154,40.3923077 62.19,39.6684615 62.19,38.7738462 C62.19,37.8792308 61.4646154,37.1546154 60.5707692,37.1546154 L3.79076923,37.1546154 L3.79076923,3.72615385 L66.3884615,3.72615385 L66.3884615,42.0430769 C66.3884615,44.5069231 64.3846154,46.51 61.92,46.51 L41.8523077,46.51 L28.3276923,46.51 L3.79076923,46.51 L3.79076923,40.3923077 Z M40.2330769,56.4315385 L29.9461538,56.4315385 L29.9461538,49.7476923 L40.2330769,49.7476923 L40.2330769,56.4315385 Z" id="Shape" fill="#FFFFFF"></path>
                        <path d="M35.0884615,44.8707692 C35.5169231,44.8707692 35.9330769,44.6976923 36.2330769,44.3961538 C36.5353846,44.0953846 36.7076923,43.6792308 36.7076923,43.2530769 C36.7076923,42.8269231 36.5346154,42.4084615 36.2330769,42.1084615 C35.6323077,41.5061538 34.5461538,41.5061538 33.9430769,42.1084615 C33.6407692,42.4092308 33.47,42.8269231 33.47,43.2530769 C33.47,43.6792308 33.6415385,44.0961538 33.9430769,44.3961538 C34.2446154,44.6976923 34.6638462,44.8707692 35.0884615,44.8707692 Z" id="Shape" fill="#FFFFFF"></path>
                        <path d="M26.5746154,8.48 L11.4153846,8.48 C10.5215385,8.48 9.79692308,9.20384615 9.79692308,10.0992308 L9.79692308,25.2569231 C9.79692308,26.1507692 10.5207692,26.8753846 11.4153846,26.8753846 L26.5746154,26.8753846 C27.47,26.8753846 28.1930769,26.1507692 28.1930769,25.2569231 L28.1930769,10.0992308 C28.1923077,9.20384615 27.47,8.48 26.5746154,8.48 Z M24.9561538,21.3492308 L21.2846154,17.6776923 L24.9561538,14.0061538 L24.9561538,21.3492308 Z M13.0346154,14.0061538 L16.7061538,17.6776923 L13.0346154,21.3492308 L13.0346154,14.0061538 Z M15.3230769,11.7176923 L22.6669231,11.7176923 L18.9953846,15.3876923 L15.3230769,11.7176923 Z M18.9946154,19.9661538 L22.6676923,23.6392308 L15.3230769,23.6392308 L18.9946154,19.9661538 Z" id="Shape" fill="#FFAD1C"></path>
                        <path d="M35.5992308,19.2953846 L43.18,19.2953846 C44.0738462,19.2953846 44.7984615,18.5715385 44.7984615,17.6769231 L44.7984615,10.0984615 C44.7984615,9.20307692 44.0746154,8.47923077 43.18,8.47923077 L35.5992308,8.47923077 C34.7069231,8.47923077 33.9807692,9.20307692 33.9807692,10.0984615 L33.9807692,17.6769231 C33.9815385,18.5715385 34.7069231,19.2953846 35.5992308,19.2953846 Z M37.2192308,11.7176923 L41.5615385,11.7176923 L41.5615385,16.06 L37.2192308,16.06 L37.2192308,11.7176923 Z" id="Shape" fill="#FFAD1C"></path>
                        <path d="M59.0161538,8.48 L51.4361538,8.48 C50.5423077,8.48 49.8176923,9.20384615 49.8176923,10.0992308 L49.8176923,17.6776923 C49.8176923,18.5715385 50.5415385,19.2961538 51.4361538,19.2961538 L59.0161538,19.2961538 C59.91,19.2961538 60.6346154,18.5723077 60.6346154,17.6776923 L60.6346154,10.0992308 C60.6338462,9.20384615 59.91,8.48 59.0161538,8.48 Z M57.3976923,16.0592308 L53.0546154,16.0592308 L53.0546154,11.7169231 L57.3976923,11.7169231 L57.3976923,16.0592308 Z" id="Shape" fill="#FFAD1C"></path>
                        <path d="M58.8284615,23.2123077 L35.5992308,23.2123077 C34.7069231,23.2123077 33.9807692,23.9376923 33.9807692,24.8315385 C33.9807692,25.7253846 34.7061538,26.4492308 35.5992308,26.4492308 L58.8276923,26.4492308 C59.7215385,26.4492308 60.4469231,25.7253846 60.4469231,24.8315385 C60.4476923,23.9384615 59.7223077,23.2123077 58.8284615,23.2123077 Z" id="Shape" fill="#FFAD1C"></path>
                        <path d="M43.7892308,29.5861538 L35.5992308,29.5861538 C34.7069231,29.5861538 33.9807692,30.3115385 33.9807692,31.2046154 C33.9807692,32.0984615 34.7061538,32.8230769 35.5992308,32.8230769 L43.7884615,32.8230769 C44.6823077,32.8230769 45.4069231,32.0992308 45.4069231,31.2046154 C45.4069231,30.3115385 44.6830769,29.5861538 43.7892308,29.5861538 Z" id="Shape" fill="#FFAD1C"></path>
                    </g>
                </g>
            </g>
        </g>
    </g>
</svg>