<?xml version="1.0" encoding="utf-8"?>
<!-- Generator: Adobe Illustrator 23.0.6, SVG Export Plug-In . SVG Version: 6.00 Build 0)  -->
<svg version="1.1" id="Layer_1" xmlns="http://www.w3.org/2000/svg" xmlns:xlink="http://www.w3.org/1999/xlink" x="0px" y="0px"
	 viewBox="0 0 685 163.6" style="enable-background:new 0 0 685 163.6;" xml:space="preserve">
<style type="text/css">
	.st0{fill:#FFFFFF;}
</style>
<g>
	<rect y="33.9" class="st0" width="94.1" height="16.6"/>
	<g>
		<polygon class="st0" points="185.7,105.9 135.5,33.9 111.5,33.9 111.5,129.7 130.4,129.7 130.4,58.7 179.6,129.7 191.7,129.7 
			241,58.7 241,129.7 259.8,129.7 259.8,33.9 235.8,33.9 		"/>
		<polygon class="st0" points="345.2,33.9 326.3,33.9 269.4,129.7 291,129.7 310.2,97.1 335.7,53.9 361.3,97.1 380.4,129.7 
			402,129.7 		"/>
		<polygon class="st0" points="18.9,88.8 91.2,88.8 91.2,72.1 0,72.1 0,129.7 94.6,129.7 94.6,113 18.9,113 		"/>
	</g>
	<g>
		<polygon class="st0" points="494.8,47.6 472.3,47.6 472.3,39.9 493.7,39.9 493.7,35.5 472.3,35.5 472.3,28.6 494.6,28.6 
			494.6,24.2 467.3,24.2 467.3,52 494.8,52 		"/>
		<polygon class="st0" points="526,47.6 505.6,47.6 505.6,24.2 500.5,24.2 500.5,52 526,52 		"/>
		<rect x="530.2" y="24.2" class="st0" width="5" height="27.8"/>
		<polygon class="st0" points="553.1,52 558.2,52 558.2,28.6 571.5,28.6 571.5,24.2 539.8,24.2 539.8,28.6 553.1,28.6 		"/>
		<polygon class="st0" points="603.4,47.6 581,47.6 581,39.9 602.4,39.9 602.4,35.5 581,35.5 581,28.6 603.2,28.6 603.2,24.2 
			575.9,24.2 575.9,52 603.4,52 		"/>
		<g>
			<polygon class="st0" points="472.1,74.3 487.1,95.9 490.4,95.9 505.4,74.3 505.4,95.9 510.4,95.9 510.4,68.1 503.7,68.1 
				488.7,89.6 473.8,68.1 467.1,68.1 467.1,95.9 472.1,95.9 			"/>
			<path class="st0" d="M549.9,88.5V68.1h-5.1v20.4c0,2-0.3,3.3-5,3.3h-12.4c-4.6,0-5-1.3-5-3.3V68.1h-5.1v20.4
				c0,6.4,3.9,7.6,10.1,7.6h12.1C546,96.2,549.9,94.9,549.9,88.5z"/>
			<path class="st0" d="M556.5,75.6c0,8,4.9,8.4,15.2,8.4h6.8c4.3,0,5,0.8,5,3.4c0,3.1-0.9,4.1-5.9,4.1h-11c-4.7,0-5.1-1.4-5.1-3.1
				v-2.6h-4.8v2.7c0,7.4,7.4,7.4,10.5,7.4h9.9c4.2,0,11.3,0,11.3-7.7v-1.7c0-5-3.3-7.2-10.6-7.2h-10.5c-5.6,0-5.8-1.1-5.8-3.4
				c0-3.4,1.2-3.9,8.6-3.9h3.8c9,0,9,0.6,9.1,4.2l0,0.7h4.8v-1.7c0-5.6-3.2-7.7-11.8-7.7h-7.7C560.8,67.5,556.5,68.8,556.5,75.6z"/>
			<rect x="595" y="67.8" class="st0" width="5.1" height="27.8"/>
			<path class="st0" d="M616.9,95.9h13.4c8,0,9.6-3.1,9.6-8.1v-2.5h-4.8v2.4c0,2.9-0.8,3.8-5.4,3.8h-12.5c-3.9,0-5.4-1.4-5.4-4.8
				v-9.9c0-3.4,1.6-4.9,5.4-4.9h12.4c3.6,0,5.3,0.4,5.3,3.9v1.9h4.6v-3c0-3.3-1.6-7.3-9-7.3h-13.6c-7.2,0-10.1,3.1-10.1,10.6v7.2
				C606.8,92.8,609.7,95.9,616.9,95.9z"/>
		</g>
		<path class="st0" d="M480.3,111.4l-16.5,27.8h5.8l3.3-5.6H493l3.3,5.6h5.8l-16.5-27.8H480.3z M475.4,129.2l7.5-12.7l7.5,12.7
			H475.4z"/>
		<path class="st0" d="M533.6,131.2c0,2.9-0.8,3.8-5.4,3.8h-12.5c-3.9,0-5.4-1.4-5.4-4.8v-9.9c0-3.4,1.6-4.8,5.4-4.8H528
			c3.6,0,5.3,0.4,5.3,3.9v1.9h4.6v-3c0-3.3-1.6-7.3-9-7.3h-13.6c-7.2,0-10.1,3.1-10.1,10.6v7.2c0,7.5,2.9,10.6,10.1,10.6h13.4
			c8,0,9.6-3.1,9.6-8.1v-2.5h-4.8V131.2z"/>
		<path class="st0" d="M572.2,131.2c0,2.9-0.8,3.8-5.4,3.8h-12.5c-3.9,0-5.4-1.4-5.4-4.8v-9.9c0-3.4,1.6-4.8,5.4-4.8h12.3
			c3.6,0,5.3,0.4,5.3,3.9v1.9h4.6v-3c0-3.3-1.6-7.3-9-7.3h-13.6c-7.2,0-10.1,3.1-10.1,10.6v7.2c0,7.5,2.9,10.6,10.1,10.6h13.4
			c8,0,9.6-3.1,9.6-8.1v-2.5h-4.8V131.2z"/>
		<polygon class="st0" points="588.1,127.1 609.5,127.1 609.5,122.7 588.1,122.7 588.1,115.8 610.4,115.8 610.4,111.4 583.1,111.4 
			583.1,139.2 610.5,139.2 610.5,134.8 588.1,134.8 		"/>
		<path class="st0" d="M636.8,122.9h-10.5c-5.6,0-5.8-1.1-5.8-3.4c0-3.4,1.2-3.9,8.6-3.9h3.8c9,0,9,0.6,9.1,4.2l0,0.7h4.8v-1.7
			c0-5.6-3.2-7.7-11.8-7.7h-7.7c-7.4,0-11.6,1.3-11.6,8.1c0,8,4.9,8.4,15.2,8.4h6.8c4.3,0,5,0.8,5,3.4c0,3.1-0.9,4.1-5.9,4.1h-11
			c-4.7,0-5.1-1.5-5.1-3.1v-2.6h-4.8v2.7c0,7.4,7.4,7.4,10.5,7.4h9.9c4.2,0,11.3,0,11.3-7.7v-1.7
			C647.4,125.1,644.1,122.9,636.8,122.9z"/>
		<path class="st0" d="M674.5,122.9h-10.5c-5.6,0-5.8-1.1-5.8-3.4c0-3.4,1.2-3.9,8.6-3.9h3.8c9,0,9,0.6,9.1,4.2l0,0.7h4.8v-1.7
			c0-5.6-3.2-7.7-11.8-7.7h-7.7c-7.4,0-11.6,1.3-11.6,8.1c0,8,4.9,8.4,15.2,8.4h6.8c4.3,0,5,0.8,5,3.4c0,3.1-0.9,4.1-5.9,4.1h-11
			c-4.7,0-5.1-1.5-5.1-3.1v-2.6h-4.8v2.7c0,7.4,7.4,7.4,10.5,7.4h9.9c4.2,0,11.3,0,11.3-7.7v-1.7C685,125.1,681.8,122.9,674.5,122.9
			z"/>
	</g>
	<rect x="435.1" class="st0" width="5.2" height="163.6"/>
</g>
</svg>
